HIERARCHY
ROOT Hips
{
 OFFSET 0.000000 0.000000 0.000000
 CHANNELS 6 Xposition Yposition Zposition Yrotation Xrotation Zrotation
 JOINT Chest
 {
  OFFSET 0.000000 9.585900 0.002600
  CHANNELS 3 Yrotation Xrotation Zrotation
  JOINT Chest2
  {
   OFFSET 0.000000 9.601200 -0.005300
   CHANNELS 3 Yrotation Xrotation Zrotation
   JOINT Chest3
   {
    OFFSET 0.000000 9.561800 0.000000
    CHANNELS 3 Yrotation Xrotation Zrotation
    JOINT Chest4
    {
     OFFSET 0.000000 9.552100 0.000000
     CHANNELS 3 Yrotation Xrotation Zrotation
     JOINT Neck
     {
      OFFSET 0.000000 14.453000 0.000000
      CHANNELS 3 Yrotation Xrotation Zrotation
      JOINT Head
      {
       OFFSET 0.000000 8.936500 -0.011300
       CHANNELS 3 Yrotation Xrotation Zrotation
       End Site
       {
        OFFSET 0.000000 17.073600 -0.006000
       }
      }
     }
     JOINT RightCollar
     {
      OFFSET -2.921100 9.558500 0.000000
      CHANNELS 3 Yrotation Xrotation Zrotation
      JOINT RightShoulder
      {
       OFFSET -13.519700 0.000000 0.000000
       CHANNELS 3 Yrotation Xrotation Zrotation
       JOINT RightElbow
       {
        OFFSET 0.000000 -29.696600 0.000000
        CHANNELS 3 Yrotation Xrotation Zrotation
        JOINT RightWrist
        {
         OFFSET 0.000000 -24.004700 0.000000
         CHANNELS 3 Yrotation Xrotation Zrotation
         End Site
         {
          OFFSET 0.000000 -17.728500 0.000000
         }
        }
       }
      }
     }
     JOINT LeftCollar
     {
      OFFSET 2.921100 9.558500 0.000000
      CHANNELS 3 Yrotation Xrotation Zrotation
      JOINT LeftShoulder
      {
       OFFSET 13.519700 0.000000 0.000000
       CHANNELS 3 Yrotation Xrotation Zrotation
       JOINT LeftElbow
       {
        OFFSET 0.000000 -29.696600 0.000000
        CHANNELS 3 Yrotation Xrotation Zrotation
        JOINT LeftWrist
        {
         OFFSET 0.000000 -24.004700 0.000000
         CHANNELS 3 Yrotation Xrotation Zrotation
         End Site
         {
          OFFSET 0.000000 -17.728500 0.000000
         }
        }
       }
      }
     }
    }
   }
  }
 }
 JOINT RightHip
 {
  OFFSET -7.771700 -0.012900 -0.001300
  CHANNELS 3 Yrotation Xrotation Zrotation
  JOINT RightKnee
  {
   OFFSET 0.000000 -40.869800 0.001200
   CHANNELS 3 Yrotation Xrotation Zrotation
   JOINT RightAnkle
   {
    OFFSET 0.000000 -39.717900 0.002100
    CHANNELS 3 Yrotation Xrotation Zrotation
    JOINT RightToe
    {
     OFFSET 0.000000 -4.965400 11.033500
     CHANNELS 3 Yrotation Xrotation Zrotation
     End Site
     {
      OFFSET 0.000000 -1.423100 5.872300
     }
    }
   }
  }
 }
 JOINT LeftHip
 {
  OFFSET 7.771700 -0.012900 -0.001300
  CHANNELS 3 Yrotation Xrotation Zrotation
  JOINT LeftKnee
  {
   OFFSET 0.000000 -40.869800 0.001200
   CHANNELS 3 Yrotation Xrotation Zrotation
   JOINT LeftAnkle
   {
    OFFSET 0.000000 -39.717900 0.002100
    CHANNELS 3 Yrotation Xrotation Zrotation
    JOINT LeftToe
    {
     OFFSET 0.000000 -4.965400 11.033500
     CHANNELS 3 Yrotation Xrotation Zrotation
     End Site
     {
      OFFSET 0.000000 -1.423100 5.872300
     }
    }
   }
  }
 }
}
MOTION
Frames: 11
Frame Time: 0.008333
0.000000 85.388000 0.000000 0.000000 -5.767877 0.000000 0.000000 11.653817 0.000000 0.000000 -5.885947 0.000000 0.000000 -0.000000 0.000000 0.000000 -0.000000 0.000000 0.000000 12.528835 0.000000 0.000000 0.711642 0.000000 0.000000 -0.000000 0.000000 0.000000 0.000000 -90.000000 0.000000 -2.309062 0.000000 0.000000 2.309062 0.000000 0.000000 -0.000000 0.000000 0.000000 -0.000000 90.000000 0.000000 -2.309062 0.000000 0.000000 2.309062 0.000000 0.000000 8.520406 0.000000 0.000000 1.905762 0.000000 -0.000000 -4.658285 0.000000 0.000000 -0.000000 0.000000 0.000000 8.520406 0.000000 0.000000 1.905762 0.000000 -0.000000 -4.658285 0.000000 0.000000 -0.000000 0.000000
-11.168345 55.250114 -28.073577 -179.929154 -17.256271 -1.694478 1.303559 16.188111 0.331424 0.131253 1.601216 0.020494 0.195290 2.698399 0.087162 1.180046 14.320514 0.390826 -3.550012 14.990939 2.927617 -4.459227 -9.881054 3.939137 0.223761 -0.050313 2.742871 3.933778 -6.000332 -9.596101 -70.786963 -57.019363 106.049820 -17.293041 -10.434073 -3.910599 -6.856954 -2.434599 2.117470 0.656486 -10.787018 8.560293 63.444459 -65.140374 -101.595278 3.199974 -13.890534 4.249827 -0.032349 -57.565684 12.546751 -113.155019 88.622978 -117.538793 -9.565692 -21.778027 13.069386 -0.001648 -0.101433 0.329030 9.992391 -54.374977 -5.473953 114.097409 77.532665 111.966220 -6.962977 -23.764913 1.001374 0.064497 0.229474 0.035749
-11.171059 55.251092 -28.073076 -179.924526 -17.263495 -1.693470 1.332842 16.174052 0.276774 0.128224 1.604547 0.028232 0.207495 2.691083 0.064964 1.199780 14.320664 0.370684 -3.805036 15.159282 3.402241 -4.860604 -9.674889 4.522589 0.238297 -0.018802 2.733600 3.922804 -5.954033 -9.554164 -70.806038 -57.036876 106.065480 -17.292995 -10.439545 -3.908340 -6.837108 -2.428199 2.108981 0.663580 -10.829844 8.559177 63.451008 -65.130383 -101.638372 3.200705 -13.879809 4.235890 -0.005464 -57.562519 12.524645 -113.163094 88.618269 -117.541416 -9.535038 -21.777331 13.017487 -0.018842 -0.090974 0.290557 9.989575 -54.364868 -5.476218 114.069851 77.536961 111.936542 -6.963463 -23.759842 1.004705 0.066850 0.230978 0.033845
-11.173392 55.252089 -28.072606 -179.916522 -17.271263 -1.698789 1.355422 16.167061 0.236359 0.131359 1.603942 0.023887 0.220298 2.684972 0.042073 1.220295 14.322409 0.351032 -4.076814 15.327241 3.879613 -5.284484 -9.464167 5.118466 0.252297 0.005256 2.720747 3.915825 -5.897749 -9.505598 -70.834392 -57.054025 106.088598 -17.289834 -10.446031 -3.904069 -6.849527 -2.409811 2.162912 0.725062 -10.880648 8.492958 63.459805 -65.118597 -101.690230 3.204242 -13.878198 4.223763 0.008747 -57.555370 12.510510 -113.341447 88.630541 -117.727070 -9.469054 -21.784712 12.977437 0.000327 -0.079456 0.247608 9.976132 -54.357122 -5.468194 114.049612 77.536796 111.914468 -6.969618 -23.755202 1.007300 0.067753 0.232255 0.033656
-11.175381 55.253001 -28.072424 -179.912127 -17.280348 -1.707920 1.368955 16.169179 0.222470 0.149014 1.598448 -0.007719 0.225538 2.684407 0.034781 1.244673 14.320316 0.314520 -4.360975 15.492429 4.344759 -5.722389 -9.252169 5.709031 0.265494 0.024639 2.706291 3.913325 -5.836407 -9.452931 -70.866394 -57.067716 106.115813 -17.284187 -10.452502 -3.901887 -6.822616 -2.396929 2.135329 0.737645 -10.919564 8.506234 63.471755 -65.106511 -101.748700 3.205622 -13.885985 4.216495 0.015143 -57.546142 12.513336 -113.449386 88.637304 -117.833941 -9.468343 -21.790533 12.957888 0.003104 -0.067303 0.217969 9.964037 -54.353062 -5.458246 114.057980 77.533803 111.924196 -6.965068 -23.748382 1.006410 0.064618 0.227264 0.032215
-11.177769 55.253844 -28.072706 -179.895890 -17.290424 -1.720771 1.372530 16.173028 0.208179 0.165968 1.596059 -0.038152 0.230591 2.684274 0.027752 1.268140 14.319203 0.279291 -4.651473 15.653144 4.783765 -6.163780 -9.041699 6.276765 0.274392 0.034934 2.691659 3.918291 -5.765679 -9.399997 -70.903348 -57.078353 106.150272 -17.281004 -10.456154 -3.902636 -6.801098 -2.373380 2.109286 0.759925 -10.955497 8.513707 63.489642 -65.095818 -101.810425 3.207962 -13.905350 4.210736 0.032214 -57.536148 12.511632 -113.383094 88.632293 -117.755296 -9.531459 -21.793959 12.967499 0.004054 -0.053675 0.187323 9.939248 -54.346803 -5.446934 114.059316 77.535294 111.927096 -6.961933 -23.743579 1.006171 0.065273 0.225574 0.032471
-11.180517 55.254461 -28.073107 -179.883902 -17.299124 -1.732512 1.410603 16.170462 0.150067 0.154570 1.601720 -0.013641 0.218833 2.686236 0.051793 1.299227 14.319313 0.215827 -4.942796 15.805745 5.186126 -6.599414 -8.837875 6.807933 0.277250 0.030817 2.677857 3.931788 -5.679466 -9.350273 -70.946512 -57.085391 106.194514 -17.281585 -10.456052 -3.903855 -6.797886 -2.341380 2.113827 0.806291 -10.984444 8.485270 63.516884 -65.083390 -101.873479 3.213409 -13.932688 4.209671 0.027974 -57.526822 12.521133 -113.414997 88.633003 -117.787545 -9.563467 -21.797107 12.979508 0.014521 -0.046772 0.154744 9.917954 -54.340797 -5.434159 114.059573 77.534383 111.927423 -6.962318 -23.742088 1.008245 0.065639 0.225179 0.031916
-11.182970 55.254891 -28.073557 -179.876705 -17.305689 -1.746637 1.423463 16.173600 0.141163 0.169603 1.602645 -0.039625 0.208838 2.686287 0.073250 1.330544 14.322483 0.160907 -5.227695 15.946734 5.545793 -7.019236 -8.645917 7.292988 0.278184 0.013582 2.666323 3.954183 -5.581276 -9.304853 -70.985956 -57.088049 106.237591 -17.282562 -10.456036 -3.905877 -6.802104 -2.305066 2.122959 0.857073 -11.002027 8.448806 63.549891 -65.067030 -101.930308 3.219515 -13.956862 4.214036 0.019143 -57.519158 12.530753 -113.504759 88.634078 -117.887229 -9.533455 -21.804720 12.984865 -0.029516 -0.049208 0.122470 9.899111 -54.336769 -5.417774 114.058964 77.532606 111.929243 -6.962797 -23.744341 1.008603 0.063593 0.227403 0.032340
-11.186575 55.254983 -28.073498 -179.873441 -17.306489 -1.754533 1.478212 16.171672 0.070224 0.146524 1.605391 0.005575 0.245507 2.687185 0.011599 1.317977 14.319900 0.236749 -5.490261 16.071886 5.817246 -7.413224 -8.471090 7.727213 0.300773 -0.010873 2.615306 3.985186 -5.478348 -9.263021 -71.011335 -57.088017 106.266315 -17.281679 -10.456155 -3.909542 -6.792234 -2.271863 2.096081 0.906807 -11.001595 8.405031 63.588152 -65.050460 -101.974649 3.226179 -13.970317 4.218780 0.016099 -57.518710 12.539787 -113.457039 88.630432 -117.834885 -9.585267 -21.809158 12.996933 -0.003203 -0.038086 0.109098 9.895023 -54.337978 -5.413141 114.054011 77.532178 111.928492 -6.972412 -23.741278 1.013167 0.070276 0.225615 0.032219
-11.188721 55.255403 -28.074564 -179.877259 -17.312107 -1.770686 1.513347 16.178232 0.053592 0.149423 1.606409 0.003388 0.243429 2.687072 0.018224 1.356260 14.326075 0.189239 -5.743505 16.179526 6.115323 -7.773961 -8.318397 8.111203 0.294380 -0.048818 2.631768 4.023757 -5.377384 -9.226137 -71.023538 -57.086680 106.281074 -17.279283 -10.454441 -3.914082 -6.826317 -2.248546 2.150562 0.956053 -10.972921 8.344161 63.631127 -65.037511 -102.006495 3.232438 -13.974837 4.222216 -0.002727 -57.511082 12.569111 -113.570144 88.640102 -117.951271 -9.615644 -21.815863 13.007759 0.008461 -0.028761 0.104390 9.885953 -54.336291 -5.391726 114.071483 77.531095 111.957535 -6.983263 -23.743510 1.007085 0.080710 0.224348 0.038489
-11.190819 55.255730 -28.075268 -179.870891 -17.312862 -1.791525 1.525729 16.179852 0.057072 0.150772 1.606976 0.002447 0.238797 2.686272 0.026912 1.398524 14.338186 0.130388 -5.970088 16.266871 6.374235 -8.095887 -8.189878 8.447322 0.291555 -0.091690 2.646955 4.071725 -5.286039 -9.197013 -71.026671 -57.087469 106.284260 -17.276145 -10.453335 -3.918511 -6.869261 -2.245278 2.221176 1.008165 -10.912847 8.261996 63.672328 -65.031325 -102.023180 3.238425 -13.974940 4.221617 -0.022922 -57.506060 12.587999 -113.590064 88.650186 -117.968189 -9.638536 -21.832076 13.030237 -0.010149 -0.017472 0.071881 9.866261 -54.340443 -5.372364 114.077822 77.531908 111.974371 -6.979548 -23.743568 0.999429 0.084997 0.224964 0.041676
